<?xml version="1.0" encoding="UTF-8" standalone="no"?>
<!-- Created with Inkscape (http://www.inkscape.org/) -->

<svg
   xmlns:dc="http://purl.org/dc/elements/1.1/"
   xmlns:cc="http://creativecommons.org/ns#"
   xmlns:rdf="http://www.w3.org/1999/02/22-rdf-syntax-ns#"
   xmlns:svg="http://www.w3.org/2000/svg"
   xmlns="http://www.w3.org/2000/svg"
   xmlns:sodipodi="http://sodipodi.sourceforge.net/DTD/sodipodi-0.dtd"
   xmlns:inkscape="http://www.inkscape.org/namespaces/inkscape"
   width="500"
   height="500"
   viewBox="0 0 500 500.00001"
   id="svg2"
   version="1.1"
   inkscape:version="0.48.4 r9939"
   sodipodi:docname="merde.svg">
  <defs
     id="defs4" />
  <sodipodi:namedview
     id="base"
     pagecolor="#ffffff"
     bordercolor="#666666"
     borderopacity="1.0"
     inkscape:pageopacity="0.0"
     inkscape:pageshadow="2"
     inkscape:zoom="0.7"
     inkscape:cx="-236.77126"
     inkscape:cy="200.51942"
     inkscape:document-units="px"
     inkscape:current-layer="layer1"
     showgrid="false"
     inkscape:window-width="1280"
     inkscape:window-height="681"
     inkscape:window-x="0"
     inkscape:window-y="49"
     inkscape:window-maximized="1" />
  <metadata
     id="metadata7">
    <rdf:RDF>
      <cc:Work
         rdf:about="">
        <dc:format>image/svg+xml</dc:format>
        <dc:type
           rdf:resource="http://purl.org/dc/dcmitype/StillImage" />
        <dc:title />
      </cc:Work>
    </rdf:RDF>
  </metadata>
  <g
     inkscape:label="Calque 1"
     inkscape:groupmode="layer"
     id="layer1"
     transform="translate(0,-552.36219)">
    <path
       style="fill:#762500;fill-opacity:1;fill-rule:evenodd;stroke:#000000;stroke-width:10.6765604;stroke-linecap:butt;stroke-linejoin:miter;stroke-miterlimit:4;stroke-opacity:1;stroke-dasharray:none"
       d="m 78.428123,867.33315 c -38.347315,5.72295 -63.97041,35.10087 -68.142829,61.51495 -4.1724187,26.41408 -1.114867,53.45395 30.559787,75.1787 31.674654,21.725 94.778049,35.6004 139.145029,38.7832 44.36699,3.1829 121.49108,4.9036 178.05518,-3.3804 56.56413,-8.2839 79.44535,-16.0117 106.92576,-39.96833 30.46546,-26.55895 31.84903,-65.2626 19.97727,-87.2089 -11.87178,-21.94631 -33.11396,-38.98656 -60.07165,-42.81038"
       id="path3338"
       inkscape:connector-curvature="0"
       sodipodi:nodetypes="czzzzszc" />
    <path
       style="fill:#762500;fill-opacity:1;fill-rule:evenodd;stroke:#000000;stroke-width:10.6765604;stroke-linecap:butt;stroke-linejoin:miter;stroke-miterlimit:4;stroke-opacity:1;stroke-dasharray:none"
       d="m 155.02486,747.90579 c -42.27665,6.58304 -62.009014,24.40902 -72.829034,39.82426 -10.820019,15.41524 -22.986447,59.54236 -1.344505,82.28176 21.641949,22.7394 69.476149,43.6534 165.621009,43.91792 88.26666,0.24285 145.50639,-11.0951 177.98971,-44.69121 18.60045,-19.23766 15.90876,-63.33393 3.82276,-82.04852 -12.086,-18.71459 -24.42431,-28.14283 -58.60743,-34.55483"
       id="path3340"
       inkscape:connector-curvature="0"
       sodipodi:nodetypes="czzsszc" />
    <path
       style="fill:#762500;fill-opacity:1;fill-rule:evenodd;stroke:#000000;stroke-width:10.6765604;stroke-linecap:round;stroke-linejoin:round;stroke-miterlimit:4;stroke-opacity:1;stroke-dasharray:none"
       d="m 156.59614,717.74429 c -13.845,55.91533 23.08412,77.13168 44.50507,81.99996 21.42094,4.86828 57.49118,9.47925 92.2584,-0.50211 34.76723,-9.98136 71.60898,-15.17646 78.0847,-58.43949 6.47573,-43.26303 -23.09902,-67.61985 -49.1233,-74.86387 -26.02429,-7.24401 -47.75881,0.75079 -72.39223,-8.43537 -24.63343,-9.18616 -27.1717,-63.76003 -32.39376,-96.5286 -2.55109,112.74742 -47.09388,100.85416 -60.93888,156.76948 z"
       id="path3342"
       inkscape:connector-curvature="0"
       sodipodi:nodetypes="zzzzzzcz" />
    <path
       style="fill:none;stroke:#ffffff;stroke-width:25.22337151;stroke-linecap:round;stroke-linejoin:miter;stroke-miterlimit:4;stroke-opacity:1;stroke-dasharray:none"
       d="m 330.77334,708.68029 c -14.274,13.37382 -30.20449,10.60333 -31.73921,12.65305"
       id="path4144"
       inkscape:connector-curvature="0"
       sodipodi:nodetypes="cc" />
  </g>
</svg>
