<?xml version="1.0" encoding="UTF-8" standalone="no"?>
<!-- Created with Inkscape (http://www.inkscape.org/) -->

<svg
   xmlns:dc="http://purl.org/dc/elements/1.1/"
   xmlns:cc="http://creativecommons.org/ns#"
   xmlns:rdf="http://www.w3.org/1999/02/22-rdf-syntax-ns#"
   xmlns:svg="http://www.w3.org/2000/svg"
   xmlns="http://www.w3.org/2000/svg"
   xmlns:sodipodi="http://sodipodi.sourceforge.net/DTD/sodipodi-0.dtd"
   xmlns:inkscape="http://www.inkscape.org/namespaces/inkscape"
   width="500"
   height="500"
   viewBox="0 0 500 500.00001"
   id="svg2"
   version="1.1"
   inkscape:version="0.48.4 r9939"
   sodipodi:docname="merde.svg">
  <defs
     id="defs4" />
  <sodipodi:namedview
     id="base"
     pagecolor="#ffffff"
     bordercolor="#666666"
     borderopacity="1.0"
     inkscape:pageopacity="0.0"
     inkscape:pageshadow="2"
     inkscape:zoom="0.7"
     inkscape:cx="-236.77126"
     inkscape:cy="200.51942"
     inkscape:document-units="px"
     inkscape:current-layer="layer1"
     showgrid="false"
     inkscape:window-width="1280"
     inkscape:window-height="681"
     inkscape:window-x="0"
     inkscape:window-y="49"
     inkscape:window-maximized="1" />
  <metadata
     id="metadata7">
    <rdf:RDF>
      <cc:Work
         rdf:about="">
        <dc:format>image/svg+xml</dc:format>
        <dc:type
           rdf:resource="http://purl.org/dc/dcmitype/StillImage" />
        <dc:title />
      </cc:Work>
    </rdf:RDF>
  </metadata>
  <g
     inkscape:label="Calque 1"
     inkscape:groupmode="layer"
     id="layer1"
     transform="translate(0,-552.36219)">
    <path
       style="fill:#762500;fill-opacity:1;fill-rule:evenodd;stroke:#000000;stroke-width:8;stroke-linecap:butt;stroke-linejoin:miter;stroke-miterlimit:4;stroke-opacity:1;stroke-dasharray:none"
       d="m 102.14285,834.50506 c -31.782953,3.87684 -53.01984,23.77803 -56.478017,41.67146 -3.458177,17.89343 -0.924022,36.21075 25.328508,50.92761 26.252529,14.71686 78.553769,24.11636 115.325929,26.27247 36.77217,2.1561 100.69402,3.32179 147.57538,-2.28998 46.88137,-5.61177 65.84574,-10.84665 88.62201,-27.07535 25.25033,-17.99154 26.39706,-44.21016 16.55752,-59.07703 -9.83954,-14.86687 -27.44545,-26.41027 -49.78847,-29.00061"
       id="path3338"
       inkscape:connector-curvature="0"
       sodipodi:nodetypes="czzzzszc" />
    <path
       style="fill:#762500;fill-opacity:1;fill-rule:evenodd;stroke:#000000;stroke-width:8;stroke-linecap:butt;stroke-linejoin:miter;stroke-miterlimit:4;stroke-opacity:1;stroke-dasharray:none"
       d="m 165.62762,753.60258 c -35.03966,4.45948 -51.3942,16.53516 -60.36203,26.97775 -8.967828,10.44259 -19.051585,40.33519 -1.11435,55.73931 17.93724,15.40412 57.58309,29.57169 137.2697,29.75088 73.15702,0.16451 120.59835,-7.51604 147.52112,-30.27472 15.41639,-13.03198 13.18547,-42.90367 3.16837,-55.58131 -10.0171,-12.67764 -20.24331,-19.06452 -48.5749,-23.40813"
       id="path3340"
       inkscape:connector-curvature="0"
       sodipodi:nodetypes="czzsszc" />
    <path
       style="fill:#762500;fill-opacity:1;fill-rule:evenodd;stroke:#000000;stroke-width:8;stroke-linecap:round;stroke-linejoin:round;stroke-miterlimit:4;stroke-opacity:1;stroke-dasharray:none"
       d="m 166.92992,733.17058 c -11.47498,37.87816 19.13254,52.25054 36.88661,55.54841 17.75407,3.29787 47.64974,6.42143 76.46545,-0.34014 28.81571,-6.76157 59.35082,-10.28084 64.71802,-39.58808 5.3672,-29.30724 -19.14489,-45.80704 -40.71429,-50.71428 -21.5694,-4.90724 -39.58337,0.5086 -60,-5.71429 -20.41663,-6.22289 -22.5204,-43.19232 -26.84853,-65.39041 -2.1144,76.37736 -39.03227,68.32063 -50.50726,106.19879 z"
       id="path3342"
       inkscape:connector-curvature="0"
       sodipodi:nodetypes="zzzzzzcz" />
    <path
       style="fill:none;stroke:#ffffff;stroke-width:18.89999962;stroke-linecap:round;stroke-linejoin:miter;stroke-miterlimit:4;stroke-opacity:1;stroke-dasharray:none"
       d="m 311.29115,727.03044 c -11.83055,9.05969 -25.03402,7.18291 -26.30603,8.57143"
       id="path4144"
       inkscape:connector-curvature="0"
       sodipodi:nodetypes="cc" />
  </g>
</svg>
